<svg xmlns="http://www.w3.org/2000/svg" width="142.2" height="142.2" viewBox="0 0 1422 1422">
  <defs>
    <style>
      .cls-1 {
        fill: #fff;
        fill-rule: evenodd;
      }
    </style>
  </defs>
  <path id="Color_Fill_1" data-name="Color Fill 1" class="cls-1" d="M669,1325c14.825,4.86,34.282-7.45,43-11,69.267-28.23,360.67-132,443-164,47.84-18.59,134.24-49.39,130-47,7.71-4.34,14.41-11.94,15-19,0-161.65-.31-482.192,0-485-0.07.605,67.7-27.631,78-32,19.82-8.41,44-16.257,44-38-6.46-20.515-19.52-38.8-30-56-19.79-32.46-35.5-66.987-55-99-8.95-14.692-18.61-45.2-32-54-7.76-5.1-14.75-4.5-27-9s-59.26-21.659-89-34c-70.79-29.368-355-136.089-416-158-15.205-5.462-46.26-22.764-69-22-14.175,2.766-22.76,7.993-46,17-31.114,12.058-62.864,23.475-95,36-102.052,39.775-206.644,79.864-309,119-32.217,12.318-81.241,30.739-95,36s-31.811,8.306-42,15c-13.266,8.715-18.051,28.934-31,52S36.3,458.954,16,498C8.892,509.6-4.82,525.765,3,543c5.978,13.175,19.228,15.294,33,21,25.431,10.537,54.613,19.445,79,32v448c0,15.94,0,20.17,0,34s4.489,14.21,11.536,18.63C199.211,1142.14,662.588,1322.9,669,1325Zm8-792c-1.638-.44,303.3-103.893,487-175,48.98-18.959,30.68-8.149,36-13-30.74-17.487-70.16-25.983-104-40-66.49-27.542-135.057-50.524-203-77-27.025-10.531-56.168-21.863-83-33-14.589-6.055-28.416-8.992-43-15-15.8-6.509-40.756-19.45-58-22,5.786-5.009-89.4,33.955-148,56-40.338,15.175-130.105,48.684-176,67-41.874,16.711-113.48,42.017-169,65-1.333,4-1.333,3,0,3C233.085,358.411,567.061,503.459,677,533Zm592-150h6c26.6,54.583,80.06,134.75,72,128,0.03,9.511-23.22,13.2-33,17-16.06,6.243-75.08,28.651-88,34-75.18,31.12-152.22,58.1-229,88-57.708,22.475-116.219,46.515-175,68-15.016-16.747-26.284-36.984-39-56-11.057-16.535-24.6-32.649-36-49-7.163-10.274-12.325-22.259-21-31,0.933-3.849,237.067-86.484,326-121,64.84-25.163,168.36-59.612,184-66C1241.95,392.569,1265.44,386.081,1269,383ZM209,567c-76.89-31.921-129.11-46.745-134-52-0.972-1.14,13.392-27.369,16-32,11.264-20,21.8-42.281,34-62,6.737-10.89,16.829-32.886,20-35,4.263-2.842,471.07,186.509,406,161,28.431,11.145,57.311,19.789,84,33-23.029,32.873-61.144,122.977-66,125S305.106,606.9,209,567Zm438,683c1.333,0.13,1-87.13,1-171V687a2.6,2.6,0,0,0-3,1c-16.149,20.85-30.956,76.189-56,84-13.554,4.227-25.4-5.022-33-8-34.395-13.485-114.251-42.033-121-45-53.507-23.52-258.108-99.807-260-100-2.039,10.693-1,25.65-1,38v369c0,9.07-2.177,25.43,2,31C174.807,1056.2,633.406,1248.61,647,1250Zm594-628v433c2.07-1.2-74.52,26.7-114,42-134.1,51.99-372.694,138.33-359,133-18.4,7.17-57.853,21.88-60,22V707c0-9.12-2.457-38.4,1-44v-1c7.143,3.641,11.4,16.449,16,23,37.549,53.487,67.785,95.179,76,98,14.376,4.936,26.713-4.4,36-8,27.528-10.683,54.49-20.44,81-31,85.11-33.9,172.93-67.141,229.95-88.337C1181.99,643.011,1229.06,621.965,1241,622ZM538,804v11c-5.2-.343-5.862-0.659-10,1-5.618,9.892-4,29.265-4,45v97c0,13.981,3.13,37.8-3,47-17.262,25.89-65.387,5.89-77-11-3.275-4.764-10.97-12.732-8-23,6.044-20.893,37.842-21.839,58-13,6.5,2.851,12.226,8.22,18,12,0-38.663-.881-117.409,0-116-12.407-2.411-35.2-7.647-69.25-12.106C412.274,838.018,377.114,829.477,375,833s-2,27.907-2,42v67c0,12.562,3.051,34.07-2,43-5.694,10.067-27.059,15.82-44,11-5.91-1.68-52.448-17.914-40-49,2.639-5.584,7.671-9.654,14-12,24.805-9.194,46.166,6.521,60,15V781c0-5,7.333-9,18-6,15.115,4.25,35.981,6.55,61.7,11.131S502.4,799.3,538,804Zm483,2v40h1c8.41-10.838,64.53-60.917,80-69V909a1.51,1.51,0,0,0-1,1l-80-12v41l-168,61V866C871.081,861.945,1005.92,808.205,1021,806Z"/>
</svg>
